<svg width="40" height="40" viewBox="0 0 40 40" fill="none" xmlns="http://www.w3.org/2000/svg">
<path d="M30.6224 25.4543V12.828C30.6224 11.5637 29.6044 10.6443 28.3566 10.7428H28.291C26.0908 10.9234 22.7577 12.0563 20.8859 13.2221L20.7053 13.337C20.4098 13.5176 19.9007 13.5176 19.5887 13.337L19.3261 13.1728C17.4707 12.0071 14.1376 10.907 11.9375 10.7264C10.6896 10.6278 9.67163 11.5638 9.67163 12.8116V25.4543C9.67163 26.4559 10.4926 27.4082 11.4941 27.5231L11.7897 27.5724C14.0555 27.8679 17.5693 29.0337 19.5724 30.1338L19.6216 30.1502C19.9007 30.3144 20.3604 30.3144 20.6232 30.1502C22.6263 29.0337 26.1564 27.8843 28.4387 27.5724L28.7835 27.5231C29.8015 27.4082 30.6224 26.4723 30.6224 25.4543Z" stroke="#E97026" stroke-width="1.5" stroke-linecap="round" stroke-linejoin="round"/>
<path d="M20.147 13.6818V29.3784" stroke="#E97026" stroke-width="1.5" stroke-linecap="round" stroke-linejoin="round"/>
</svg>
