<svg width="29" height="28" viewBox="0 0 29 28" fill="none" xmlns="http://www.w3.org/2000/svg">
<path d="M21.772 8.78734C21.7016 8.77639 21.6195 8.77639 21.5492 8.78734C19.9307 8.73261 18.6406 7.4957 18.6406 5.96325C18.6406 4.39796 19.9893 3.13916 21.6664 3.13916C23.3435 3.13916 24.6922 4.40891 24.6922 5.96325C24.6805 7.4957 23.3904 8.73261 21.772 8.78734Z" stroke="#E97026" stroke-width="1.5" stroke-linecap="round" stroke-linejoin="round"/>
<path d="M20.564 16.7563C22.1707 17.0081 23.9416 16.7453 25.1848 15.9682C26.8384 14.9392 26.8384 13.2536 25.1848 12.2246C23.9299 11.4474 22.1355 11.1847 20.5288 11.4474" stroke="#E97026" stroke-width="1.5" stroke-linecap="round" stroke-linejoin="round"/>
<path d="M7.66318 8.78734C7.73355 8.77639 7.81564 8.77639 7.88601 8.78734C9.50446 8.73261 10.7945 7.4957 10.7945 5.96325C10.7945 4.39796 9.44583 3.13916 7.76873 3.13916C6.09164 3.13916 4.74292 4.40891 4.74292 5.96325C4.75465 7.4957 6.04472 8.73261 7.66318 8.78734Z" stroke="#E97026" stroke-width="1.5" stroke-linecap="round" stroke-linejoin="round"/>
<path d="M8.87129 16.7563C7.26456 17.0081 5.49365 16.7453 4.25048 15.9682C2.59684 14.9392 2.59684 13.2536 4.25048 12.2246C5.50537 11.4474 7.29974 11.1847 8.90647 11.4474" stroke="#E97026" stroke-width="1.5" stroke-linecap="round" stroke-linejoin="round"/>
<path d="M14.7351 16.9642C14.6648 16.9533 14.5827 16.9533 14.5123 16.9642C12.8938 16.9095 11.6038 15.6726 11.6038 14.1401C11.6038 12.5748 12.9525 11.316 14.6296 11.316C16.3067 11.316 17.6554 12.5858 17.6554 14.1401C17.6436 15.6726 16.3536 16.9204 14.7351 16.9642Z" stroke="#E97026" stroke-width="1.5" stroke-linecap="round" stroke-linejoin="round"/>
<path d="M11.3223 20.4121C9.66862 21.441 9.66862 23.1267 11.3223 24.1556C13.1987 25.3269 16.2715 25.3269 18.1479 24.1556C19.8016 23.1267 19.8016 21.441 18.1479 20.4121C16.2832 19.2518 13.1987 19.2518 11.3223 20.4121Z" stroke="#E97026" stroke-width="1.5" stroke-linecap="round" stroke-linejoin="round"/>
</svg>
